# xmcd
#
# Track frame offsets: 
#        150
#        3662
#        20100
#        28942
#        34315
#        44317
#        49732
#        58650
#        85117
#        106882
#        129675
#        136202
#        141750
#        170080
#        180445
#
# Disc length: 2593 seconds
#
# Revision: 7
# Processed by: cddbd v1.5.2PL0 Copyright (c) Steve Scherf et al.
# Submitted via: ExactAudioCopyFreeDBPlugin 1.0
#
DISCID=d20a1f0f
DTITLE=Jeff Foxworthy - Big Funny
DYEAR=2000
DGENRE=Comedy
TTITLE0=Introduction
TTITLE1=Seeing Things On The Road
TTITLE2=I'd Thought I'd Heard Every Redneck Thing
TTITLE3=Telephones In The Bathroom
TTITLE4=Jeff Gordon Enunciates
TTITLE5=Speaking Of Words
TTITLE6=The Way I Grew Up
TTITLE7=My Wife's Family
TTITLE8=House Full Of Girls
TTITLE9=It's A Different World
TTITLE10=I Don't Need To Know That
TTITLE11=You Are Being Trained
TTITLE12=Women Want To Talk
TTITLE13=Thanks Y'all -- Encore
TTITLE14=Blue Collar Dollar (With Bill Engvall Featuring Marty Stuart)
EXTD=YEAR: 2000
EXTT0=
EXTT1=
EXTT2=
EXTT3=
EXTT4=
EXTT5=
EXTT6=
EXTT7=
EXTT8=
EXTT9=
EXTT10=
EXTT11=
EXTT12=
EXTT13=
EXTT14=
PLAYORDER=
